<svg viewBox="0 0 208.823 135.334" fill="none" xmlns="http://www.w3.org/2000/svg" xmlns:xlink="http://www.w3.org/1999/xlink" id="1340443d" x="0" y="0"><g id="Analytics" data-node-id="1:1890" clip-path="url(#clip0_1_1890)"><g id="MacBook Air - 8" data-node-id="1:1891" clip-path="url(#clip1_1_1890)"><g id="Integrate Employee Directory" data-node-id="1:1892" filter="url(#filter0_d_1_1890)"><g id="Home" data-node-id="1:1893"><g clip-path="url(#clip2_1_1890)"><g id="Frame 71" data-node-id="1:1894"><g id="Frame 70" data-node-id="1:1897"><g id="Frame 66" data-node-id="1:1898"><g id="Group 289209" data-node-id="1:1904"><g id="Quotation_4" data-node-id="1:1938" filter="url(#filter5_d_1_1890)"><g clip-path="url(#clip10_1_1890)"><path id="Background_7" data-node-id="1:1939" fill-rule="evenodd" clip-rule="evenodd" d="M0,7.902c0,-4.364 3.53,-7.902 7.9,-7.902h192.02c4.36,0 7.9,3.538 7.9,7.902v118.53c0,4.364 -3.54,7.902 -7.9,7.902h-192.02c-4.37,0 -7.9,-3.538 -7.9,-7.902z" fill="#FF4F52"/><g mask="url(#mask3_1_1890)"><path id="Path 2_3" data-node-id="1:1941" d="M62.18,65.365l20.67,-19.904l10.53,15.047l0.14,0.191l0.21,0.088l19.89,8.081l9.9,9.152l0.04,0.037l0.05,0.032l10.27,7.112l0.36,0.249l0.4,-0.173l10.9,-4.671l19.98,0.769l20.32,28.917l0.2,0.284l0.34,0.045l22.39,2.932l-0.16,21.571h-209.41v-115.588l20.84,11.905l30.93,34.116l0.24,0.268l0.37,-0.008l10.07,-0.231l0.31,-0.007z" fill="#DE373A" fill-opacity="0.5" stroke="#DE373A" stroke-width="1.5804"/><g id="Icons/10x10/White/Arrow Up_3" data-node-id="1:1944"><path id="Arrow_5" data-node-id="1:1945" fill-rule="evenodd" clip-rule="evenodd" d="M164.4,62.424h6.24c0.24,0 0.43,0.202 0.43,0.451c0,0.086 -0.02,0.171 -0.07,0.243l-3.12,5.025c-0.13,0.21 -0.4,0.27 -0.6,0.136c-0.05,-0.035 -0.1,-0.081 -0.13,-0.136l-3.12,-5.025c-0.13,-0.209 -0.07,-0.488 0.13,-0.622c0.07,-0.047 0.15,-0.072 0.24,-0.072z" fill="white"/></g></g></g></g></g></g></g></g></g></g></g></g></g><defs><clipPath id="clip0_1_1890"><rect width="1280" height="892" fill="white" x="-1030.22" y="-173.556"/></clipPath><clipPath id="clip1_1_1890"><rect width="1280" height="892" fill="white" x="-1030.22" y="-173.556"/></clipPath><filter id="filter0_d_1_1890" x="-1034.22" y="-173.556" width="1288" height="900" filterUnits="userSpaceOnUse" color-interpolation-filters="sRGB"><feFlood flood-opacity="0" result="BackgroundImageFix"/><feColorMatrix in="SourceAlpha" type="matrix" values="0 0 0 0 0 0 0 0 0 0 0 0 0 0 0 0 0 0 127 0" result="hardAlpha"/><feOffset dy="4"/><feGaussianBlur stdDeviation="2"/><feComposite in2="hardAlpha" operator="out"/><feColorMatrix type="matrix" values="0 0 0 0 0 0 0 0 0 0 0 0 0 0 0 0 0 0 0.25 0"/><feBlend mode="normal" in2="BackgroundImageFix" result="effect1_dropShadow_1_1890"/><feBlend mode="normal" in="SourceGraphic" in2="effect1_dropShadow_1_1890" result="shape"/></filter><clipPath id="clip2_1_1890"><rect width="1280" height="889" rx="17.7778" fill="white" x="-1030.22" y="-173.556"/></clipPath><filter id="filter5_d_1_1890" x="-4.1400000000001" y="-4.131" width="216.086" height="142.597" filterUnits="userSpaceOnUse" color-interpolation-filters="sRGB"><feFlood flood-opacity="0" result="BackgroundImageFix"/><feColorMatrix in="SourceAlpha" type="matrix" values="0 0 0 0 0 0 0 0 0 0 0 0 0 0 0 0 0 0 127 0" result="hardAlpha"/><feOffset/><feGaussianBlur stdDeviation="2.06575"/><feComposite in2="hardAlpha" operator="out"/><feColorMatrix type="matrix" values="0 0 0 0 0.42908 0 0 0 0 0.42908 0 0 0 0 0.42908 0 0 0 0.5 0"/><feBlend mode="normal" in2="BackgroundImageFix" result="effect1_dropShadow_1_1890"/><feBlend mode="normal" in="SourceGraphic" in2="effect1_dropShadow_1_1890" result="shape"/></filter><clipPath id="clip10_1_1890"><rect x="0" y="0" width="207.823" height="134.334" rx="10.3288" fill="white"/></clipPath><mask id="mask3_1_1890" style="mask-type:luminance" maskUnits="userSpaceOnUse" x="-0.22000000000002728" y="-0.5560000000000116" width="209" height="135"><path id="Background_8" data-node-id="1:1940" fill-rule="evenodd" clip-rule="evenodd" d="M0,7.902c0,-4.364 3.53,-7.902 7.9,-7.902h192.02c4.36,0 7.9,3.538 7.9,7.902v118.53c0,4.364 -3.54,7.902 -7.9,7.902h-192.02c-4.37,0 -7.9,-3.538 -7.9,-7.902z" fill="white"/></mask></defs></svg>