<svg viewBox="0 0 208.823 135.334" fill="none" xmlns="http://www.w3.org/2000/svg" xmlns:xlink="http://www.w3.org/1999/xlink" id="6ecb5461" x="0" y="0"><g id="Analytics" data-node-id="1:1890" clip-path="url(#clip0_1_1890)"><g id="MacBook Air - 8" data-node-id="1:1891" clip-path="url(#clip1_1_1890)"><g id="Integrate Employee Directory" data-node-id="1:1892" filter="url(#filter0_d_1_1890)"><g id="Home" data-node-id="1:1893"><g clip-path="url(#clip2_1_1890)"><g id="Frame 71" data-node-id="1:1894"><g id="Frame 70" data-node-id="1:1897"><g id="Frame 66" data-node-id="1:1898"><g id="Group 289209" data-node-id="1:1904"><g id="Quotation_2" data-node-id="1:1916" filter="url(#filter3_d_1_1890)"><g clip-path="url(#clip8_1_1890)"><path id="Background_3" data-node-id="1:1917" fill-rule="evenodd" clip-rule="evenodd" d="M0,7.902c0,-4.364 3.538,-7.902 7.902,-7.902h192.019c4.364,0 7.902,3.538 7.902,7.902v118.53c0,4.364 -3.538,7.902 -7.902,7.902h-192.019c-4.364,0 -7.902,-3.538 -7.902,-7.902z" fill="#14827B"/><g mask="url(#mask1_1_1890)"><path id="Path 2_2" data-node-id="1:1919" d="M-0.79,135.124v-115.138l20.798,19.313l0.253,0.235l0.345,-0.027l20.09,-1.545l10.015,14.637l0.348,0.509l0.579,-0.214l21.288,-7.884l10.045,-2.319l9.948,2.296l10.148,7.025l0.149,0.104l0.18,0.028l20.493,3.152l21.284,6.307l0.228,0.068l0.229,-0.071l9.87,-3.037l20.014,16.165l10.208,40.046l0.239,0.939l0.871,-0.423l21.941,-10.647l-0.156,30.481z" fill="#055F59" stroke="#16B4F7" stroke-width="1.5804"/><g id="Icons/10x10/White/Arrow Up_2" data-node-id="1:1922"><path id="Arrow_3" data-node-id="1:1923" fill-rule="evenodd" clip-rule="evenodd" d="M114.539,67.168h-6.241c-0.241,0 -0.435,-0.202 -0.435,-0.451c0,-0.086 0.024,-0.171 0.069,-0.243l3.12,-5.025c0.13,-0.21 0.4,-0.27 0.602,-0.136c0.052,0.035 0.097,0.081 0.131,0.136l3.12,5.025c0.13,0.209 0.072,0.488 -0.131,0.623c-0.07,0.046 -0.152,0.071 -0.235,0.071z" fill="white"/></g></g></g></g></g></g></g></g></g></g></g></g></g><defs><clipPath id="clip0_1_1890"><rect width="1280" height="892" fill="white" x="-568.738" y="-173.556"/></clipPath><clipPath id="clip1_1_1890"><rect width="1280" height="892" fill="white" x="-568.738" y="-173.556"/></clipPath><filter id="filter0_d_1_1890" x="-572.738" y="-173.556" width="1288" height="900" filterUnits="userSpaceOnUse" color-interpolation-filters="sRGB"><feFlood flood-opacity="0" result="BackgroundImageFix"/><feColorMatrix in="SourceAlpha" type="matrix" values="0 0 0 0 0 0 0 0 0 0 0 0 0 0 0 0 0 0 127 0" result="hardAlpha"/><feOffset dy="4"/><feGaussianBlur stdDeviation="2"/><feComposite in2="hardAlpha" operator="out"/><feColorMatrix type="matrix" values="0 0 0 0 0 0 0 0 0 0 0 0 0 0 0 0 0 0 0.25 0"/><feBlend mode="normal" in2="BackgroundImageFix" result="effect1_dropShadow_1_1890"/><feBlend mode="normal" in="SourceGraphic" in2="effect1_dropShadow_1_1890" result="shape"/></filter><clipPath id="clip2_1_1890"><rect width="1280" height="889" rx="17.7778" fill="white" x="-568.738" y="-173.556"/></clipPath><filter id="filter3_d_1_1890" x="-4.1310000000000855" y="-4.131" width="216.086" height="142.597" filterUnits="userSpaceOnUse" color-interpolation-filters="sRGB"><feFlood flood-opacity="0" result="BackgroundImageFix"/><feColorMatrix in="SourceAlpha" type="matrix" values="0 0 0 0 0 0 0 0 0 0 0 0 0 0 0 0 0 0 127 0" result="hardAlpha"/><feOffset/><feGaussianBlur stdDeviation="2.06575"/><feComposite in2="hardAlpha" operator="out"/><feColorMatrix type="matrix" values="0 0 0 0 0.42908 0 0 0 0 0.42908 0 0 0 0 0.42908 0 0 0 0.5 0"/><feBlend mode="normal" in2="BackgroundImageFix" result="effect1_dropShadow_1_1890"/><feBlend mode="normal" in="SourceGraphic" in2="effect1_dropShadow_1_1890" result="shape"/></filter><clipPath id="clip8_1_1890"><rect x="0" y="0" width="207.823" height="134.334" rx="10.3288" fill="white"/></clipPath><mask id="mask1_1_1890" style="mask-type:luminance" maskUnits="userSpaceOnUse" x="-0.7380000000000564" y="-0.5560000000000116" width="209" height="135"><path id="Background_4" data-node-id="1:1918" fill-rule="evenodd" clip-rule="evenodd" d="M0,7.902c0,-4.364 3.538,-7.902 7.902,-7.902h192.019c4.364,0 7.902,3.538 7.902,7.902v118.53c0,4.364 -3.538,7.902 -7.902,7.902h-192.019c-4.364,0 -7.902,-3.538 -7.902,-7.902z" fill="white"/></mask></defs></svg>