<svg viewBox="0 0 208.823 135.334" fill="none" xmlns="http://www.w3.org/2000/svg" xmlns:xlink="http://www.w3.org/1999/xlink" id="c29b8675" x="0" y="0"><g id="Analytics" data-node-id="1:1890" clip-path="url(#clip0_1_1890)"><g id="MacBook Air - 8" data-node-id="1:1891" clip-path="url(#clip1_1_1890)"><g id="Integrate Employee Directory" data-node-id="1:1892" filter="url(#filter0_d_1_1890)"><g id="Home" data-node-id="1:1893"><g clip-path="url(#clip2_1_1890)"><g id="Frame 71" data-node-id="1:1894"><g id="Frame 70" data-node-id="1:1897"><g id="Frame 66" data-node-id="1:1898"><g id="Group 289209" data-node-id="1:1904"><g id="Quotation" data-node-id="1:1905" filter="url(#filter2_d_1_1890)"><g clip-path="url(#clip7_1_1890)"><path id="Background" data-node-id="1:1906" fill-rule="evenodd" clip-rule="evenodd" d="M0,7.902c0,-4.364 3.538,-7.902 7.902,-7.902h192.019c4.364,0 7.902,3.538 7.902,7.902v118.53c0,4.364 -3.538,7.902 -7.902,7.902h-192.019c-4.364,0 -7.902,-3.538 -7.902,-7.902z" fill="#8EBAE3"/><g mask="url(#mask0_1_1890)"><path id="Path 2" data-node-id="1:1908" d="M208.615,135.125h-209.405v-21.335h21.335h0.376l0.237,-0.292l10.215,-12.572l30.403,-23.387l10.657,3.806l0.526,0.188l0.353,-0.433l10.272,-12.644l0.104,-0.127l0.044,-0.158l11.002,-39.293l8.803,-8.069l9.741,8.242l0.151,0.128l0.194,0.042l10.916,2.339l9.156,6.104l10.971,26.644l0.284,0.69l0.705,-0.244l19.733,-6.831l10.061,39.468l0.296,1.162l0.951,-0.731l20.282,-15.601l10.733,1.533l0.086,0.013l0.088,-0.007l0.891,-0.071z" fill="#79AED4" fill-opacity="0.5" stroke="#589CED" stroke-width="1.5804"/><g id="Icons/10x10/White/Arrow Up" data-node-id="1:1911"><path id="Arrow_2" data-node-id="1:1912" fill-rule="evenodd" clip-rule="evenodd" d="M90.123,62.424h6.241c0.241,0 0.435,0.202 0.435,0.451c0,0.086 -0.024,0.171 -0.069,0.243l-3.12,5.025c-0.13,0.21 -0.4,0.27 -0.602,0.136c-0.052,-0.035 -0.097,-0.081 -0.131,-0.136l-3.12,-5.025c-0.13,-0.209 -0.072,-0.488 0.131,-0.622c0.07,-0.047 0.152,-0.072 0.235,-0.072z" fill="white"/></g></g></g></g></g></g></g></g></g></g></g></g></g><defs><clipPath id="clip0_1_1890"><rect width="1280" height="892" fill="white" x="-338" y="-173.556"/></clipPath><clipPath id="clip1_1_1890"><rect width="1280" height="892" fill="white" x="-338" y="-173.556"/></clipPath><filter id="filter0_d_1_1890" x="-342" y="-173.556" width="1288" height="900" filterUnits="userSpaceOnUse" color-interpolation-filters="sRGB"><feFlood flood-opacity="0" result="BackgroundImageFix"/><feColorMatrix in="SourceAlpha" type="matrix" values="0 0 0 0 0 0 0 0 0 0 0 0 0 0 0 0 0 0 127 0" result="hardAlpha"/><feOffset dy="4"/><feGaussianBlur stdDeviation="2"/><feComposite in2="hardAlpha" operator="out"/><feColorMatrix type="matrix" values="0 0 0 0 0 0 0 0 0 0 0 0 0 0 0 0 0 0 0.25 0"/><feBlend mode="normal" in2="BackgroundImageFix" result="effect1_dropShadow_1_1890"/><feBlend mode="normal" in="SourceGraphic" in2="effect1_dropShadow_1_1890" result="shape"/></filter><clipPath id="clip2_1_1890"><rect width="1280" height="889" rx="17.7778" fill="white" x="-338" y="-173.556"/></clipPath><filter id="filter2_d_1_1890" x="-4.132000000000005" y="-4.131" width="216.086" height="142.597" filterUnits="userSpaceOnUse" color-interpolation-filters="sRGB"><feFlood flood-opacity="0" result="BackgroundImageFix"/><feColorMatrix in="SourceAlpha" type="matrix" values="0 0 0 0 0 0 0 0 0 0 0 0 0 0 0 0 0 0 127 0" result="hardAlpha"/><feOffset/><feGaussianBlur stdDeviation="2.06575"/><feComposite in2="hardAlpha" operator="out"/><feColorMatrix type="matrix" values="0 0 0 0 0.42908 0 0 0 0 0.42908 0 0 0 0 0.42908 0 0 0 0.5 0"/><feBlend mode="normal" in2="BackgroundImageFix" result="effect1_dropShadow_1_1890"/><feBlend mode="normal" in="SourceGraphic" in2="effect1_dropShadow_1_1890" result="shape"/></filter><clipPath id="clip7_1_1890"><rect x="0" y="0" width="207.823" height="134.334" rx="10.3288" fill="white"/></clipPath><mask id="mask0_1_1890" style="mask-type:luminance" maskUnits="userSpaceOnUse" x="0" y="-0.5560000000000116" width="208" height="135"><path id="Background_2" data-node-id="1:1907" fill-rule="evenodd" clip-rule="evenodd" d="M0,10.329c0,-5.705 4.624,-10.329 10.329,-10.329h187.165c5.704,0 10.329,4.625 10.329,10.329v113.676c0,5.705 -4.625,10.329 -10.329,10.329h-187.165c-5.705,0 -10.329,-4.624 -10.329,-10.329z" fill="white"/></mask></defs></svg>