<svg viewBox="0 0 208.823 135.334" fill="none" xmlns="http://www.w3.org/2000/svg" xmlns:xlink="http://www.w3.org/1999/xlink" id="5ab1dc70" x="0" y="0"><g id="Analytics" data-node-id="1:1890" clip-path="url(#clip0_1_1890)"><g id="MacBook Air - 8" data-node-id="1:1891" clip-path="url(#clip1_1_1890)"><g id="Integrate Employee Directory" data-node-id="1:1892" filter="url(#filter0_d_1_1890)"><g id="Home" data-node-id="1:1893"><g clip-path="url(#clip2_1_1890)"><g id="Frame 71" data-node-id="1:1894"><g id="Frame 70" data-node-id="1:1897"><g id="Frame 66" data-node-id="1:1898"><g id="Group 289209" data-node-id="1:1904"><g id="Quotation_3" data-node-id="1:1927" filter="url(#filter4_d_1_1890)"><g clip-path="url(#clip9_1_1890)"><path id="Background_5" data-node-id="1:1928" fill-rule="evenodd" clip-rule="evenodd" d="M0,7.902c0,-4.364 3.538,-7.902 7.902,-7.902h192.018c4.363,0 7.903,3.538 7.903,7.902v118.53c0,4.364 -3.54,7.902 -7.903,7.902h-192.018c-4.364,0 -7.902,-3.538 -7.902,-7.902z" fill="white"/><g mask="url(#mask2_1_1890)"><path id="Path" data-node-id="1:1930" opacity="0.5" d="M-1.533,106.954l9.687,8.995l0.38,0.353l0.475,-0.208l12.643,-5.531l0.144,-0.064l0.109,-0.113l12.312,-12.837l12.182,3.566l0.792,0.231l0.198,-0.801l12.453,-50.593l11.874,2.969l0.675,0.168l0.253,-0.648l12.297,-31.51l11.651,7.282l12.543,24.304l0.152,0.293l0.315,0.098l12.457,3.893l12.506,12.506l0.814,0.814l0.467,-1.052l12.274,-27.616l11.871,7.42l0.354,0.221l0.382,-0.167l12.42,-5.434l12.116,2.272l12.46,15.575l0.445,0.556l0.599,-0.385l9.846,-6.329v79.943h-209.424z" fill="#FFC4C9" stroke="#FF4F52" stroke-width="1.5804"/><g id="Icons/10x10/Dark/Arrow Up" data-node-id="1:1933"><path id="Arrow_4" data-node-id="1:1934" fill-rule="evenodd" clip-rule="evenodd" d="M99.524,67.168h-6.241c-0.24,0 -0.435,-0.202 -0.435,-0.451c0,-0.086 0.024,-0.171 0.069,-0.243l3.121,-5.025c0.13,-0.21 0.399,-0.27 0.601,-0.136c0.053,0.035 0.097,0.081 0.131,0.136l3.121,5.025c0.13,0.209 0.071,0.488 -0.131,0.623c-0.07,0.046 -0.152,0.071 -0.236,0.071z" fill="#262D33"/></g></g></g></g></g></g></g></g></g></g></g></g></g><defs><clipPath id="clip0_1_1890"><rect width="1280" height="892" fill="white" x="-799.477" y="-173.556"/></clipPath><clipPath id="clip1_1_1890"><rect width="1280" height="892" fill="white" x="-799.477" y="-173.556"/></clipPath><filter id="filter0_d_1_1890" x="-803.477" y="-173.556" width="1288" height="900" filterUnits="userSpaceOnUse" color-interpolation-filters="sRGB"><feFlood flood-opacity="0" result="BackgroundImageFix"/><feColorMatrix in="SourceAlpha" type="matrix" values="0 0 0 0 0 0 0 0 0 0 0 0 0 0 0 0 0 0 127 0" result="hardAlpha"/><feOffset dy="4"/><feGaussianBlur stdDeviation="2"/><feComposite in2="hardAlpha" operator="out"/><feColorMatrix type="matrix" values="0 0 0 0 0 0 0 0 0 0 0 0 0 0 0 0 0 0 0.25 0"/><feBlend mode="normal" in2="BackgroundImageFix" result="effect1_dropShadow_1_1890"/><feBlend mode="normal" in="SourceGraphic" in2="effect1_dropShadow_1_1890" result="shape"/></filter><clipPath id="clip2_1_1890"><rect width="1280" height="889" rx="17.7778" fill="white" x="-799.477" y="-173.556"/></clipPath><filter id="filter4_d_1_1890" x="-4.131999999999948" y="-4.131" width="216.086" height="142.597" filterUnits="userSpaceOnUse" color-interpolation-filters="sRGB"><feFlood flood-opacity="0" result="BackgroundImageFix"/><feColorMatrix in="SourceAlpha" type="matrix" values="0 0 0 0 0 0 0 0 0 0 0 0 0 0 0 0 0 0 127 0" result="hardAlpha"/><feOffset/><feGaussianBlur stdDeviation="2.06575"/><feComposite in2="hardAlpha" operator="out"/><feColorMatrix type="matrix" values="0 0 0 0 0.42908 0 0 0 0 0.42908 0 0 0 0 0.42908 0 0 0 0.5 0"/><feBlend mode="normal" in2="BackgroundImageFix" result="effect1_dropShadow_1_1890"/><feBlend mode="normal" in="SourceGraphic" in2="effect1_dropShadow_1_1890" result="shape"/></filter><clipPath id="clip9_1_1890"><rect x="0" y="0" width="207.823" height="134.334" rx="10.3288" fill="white"/></clipPath><mask id="mask2_1_1890" style="mask-type:luminance" maskUnits="userSpaceOnUse" x="-0.47699999999997544" y="-0.5560000000000116" width="209" height="135"><path id="Background_6" data-node-id="1:1929" fill-rule="evenodd" clip-rule="evenodd" d="M0,7.902c0,-4.364 3.538,-7.902 7.902,-7.902h192.018c4.363,0 7.903,3.538 7.903,7.902v118.53c0,4.364 -3.54,7.902 -7.903,7.902h-192.018c-4.364,0 -7.902,-3.538 -7.902,-7.902z" fill="white"/></mask></defs></svg>