<svg viewBox="0 0 883 333.553" fill="none" xmlns="http://www.w3.org/2000/svg" xmlns:xlink="http://www.w3.org/1999/xlink" id="23f57e52" x="0" y="0"><g id="Analytics" data-node-id="1:1890" clip-path="url(#clip0_1_1890)"><g id="MacBook Air - 8" data-node-id="1:1891" clip-path="url(#clip1_1_1890)"><g id="Integrate Employee Directory" data-node-id="1:1892" filter="url(#filter0_d_1_1890)"><g id="Home" data-node-id="1:1893"><g clip-path="url(#clip2_1_1890)"><g id="Frame 71" data-node-id="1:1894"><g id="Frame 70" data-node-id="1:1897"><g id="Frame 66" data-node-id="1:1898"><g id="Group 289210" data-node-id="1:1986"><g id="Pageviews (Table)" data-node-id="1:1987" clip-path="url(#clip11_1_1890)"><path id="Background_9" data-node-id="1:1988" fill-rule="evenodd" clip-rule="evenodd" d="M0,10c0,-5.523 4.477,-10 10,-10h862c5.52,0 10,4.477 10,10v343.631c0,5.523 -4.48,10 -10,10h-862c-5.523,0 -10,-4.477 -10,-10z" fill="white"/><g id="Divider/Horizontal" data-node-id="1:2002" opacity="0.5"><rect id="Divider" data-node-id="1:2003" x="19.341999999999985" y="324.947" width="843.316" height="0.773684" fill="#D9DADB"/></g><g id="Divider/Horizontal_2" data-node-id="1:2015" opacity="0.5"><rect id="Divider_2" data-node-id="1:2016" x="19.341999999999985" y="290.131" width="843.316" height="0.773684" fill="#D9DADB"/></g><g id="Divider/Horizontal_3" data-node-id="1:2028" opacity="0.5"><rect id="Divider_3" data-node-id="1:2029" x="19.341999999999985" y="255.31600000000003" width="843.316" height="0.773684" fill="#D9DADB"/></g><g id="Divider/Horizontal_4" data-node-id="1:2041" opacity="0.5"><rect id="Divider_4" data-node-id="1:2042" x="19.341999999999985" y="220.5" width="843.316" height="0.773684" fill="#D9DADB"/></g><g id="Divider/Horizontal_5" data-node-id="1:2054" opacity="0.5"><rect id="Divider_5" data-node-id="1:2055" x="19.341999999999985" y="185.683" width="843.316" height="0.773684" fill="#D9DADB"/></g><g id="Divider/Horizontal_6" data-node-id="1:2067" opacity="0.5"><rect id="Divider_6" data-node-id="1:2068" x="19.341999999999985" y="150.86800000000005" width="843.316" height="0.773684" fill="#D9DADB"/></g><g id="Divider/Horizontal_7" data-node-id="1:2080" opacity="0.5"><rect id="Divider_7" data-node-id="1:2081" x="19.341999999999985" y="116.05200000000002" width="843.316" height="0.773684" fill="#D9DADB"/></g><g id="Chart_2" data-node-id="1:2082"><path id="Path 7" data-node-id="1:2083" fill-rule="evenodd" clip-rule="evenodd" d="M776.78,95.804l3.87,1.974l3.87,2.561l3.86,-2.241l3.87,-1.974l3.87,-0.774l3.87,0.96l3.87,4.963l3.87,-7.284l3.86,-0.48l3.87,2.801l3.87,6.403l3.87,-3.334l3.87,-4.296l3.87,5.189l3.87,2.655l3.86,-1.681l4.65,-4.269v15.207h-71.18v-10.751z" fill="url(#paint0_linear_1_1890)"/><path id="Path 7_2" data-node-id="1:2084" d="M772.91,101.433l3.87,-5.629l3.87,1.974l3.87,2.668l3.86,-2.348l3.87,-1.974l3.87,-0.774l3.87,0.96l3.87,4.963l3.87,-7.284l3.86,-0.48l3.87,2.801l3.87,6.403l3.87,-3.334l3.87,-4.296l3.87,5.629l3.87,2.215l3.86,-1.681l3.87,-4.162" stroke="#4592FF" stroke-width="1.16053" stroke-linecap="round" stroke-linejoin="round"/></g><g id="Chart_3" data-node-id="1:2087"><path id="Path 7_3" data-node-id="1:2088" fill-rule="evenodd" clip-rule="evenodd" d="M652.989,108.182l3.869,-2.667l3.868,3.334l3.864,-5.335l3.87,2.668h3.87l3.87,-6.003l3.87,-2.001l3.87,2.001l3.87,-6.67l3.86,6.67l3.87,-1.334l3.87,-3.335l4.64,2.668l3.1,-1l3.87,0.333l3.86,-4.002l4.65,7.337v11.338h-71.183v-5.335z" fill="url(#paint1_linear_1_1890)"/><path id="Path 7_4" data-node-id="1:2089" d="M649.121,106.849l3.868,1.333l3.869,-2.667l3.868,2.667l3.864,-4.668l3.87,2.668h3.87l3.87,-6.003l3.87,-2.001l3.87,2.001l3.87,-6.67l3.86,6.67l3.87,-1.334l3.87,-3.335l3.87,2.668l3.87,-1.334l3.87,0.667l3.86,-4.002l3.87,6.67" stroke="#4592FF" stroke-width="1.16053" stroke-linecap="round" stroke-linejoin="round"/></g><g id="Chart_4" data-node-id="1:2092"><path id="Path 7_5" data-node-id="1:2093" fill-rule="evenodd" clip-rule="evenodd" d="M553.958,100.446l3.868,1.201l3.869,-3.628l3.868,2.401l3.868,5.762h3.869l3.868,-8.323l3.869,-2.001l3.868,-0.32l3.869,13.446l3.868,-10.352l3.868,-2.107l3.869,-1.788l4.642,1.121l3.095,-1.774l3.868,-0.441l3.869,15.341l4.642,-1.174v4.375h-71.179v-7.657z" fill="url(#paint2_linear_1_1890)"/><path id="Path 7_6" data-node-id="1:2094" d="M550.089,104.528l3.869,-4.082l3.868,1.201l3.869,-3.522l3.868,2.295l3.868,5.762h3.869l3.868,-8.323l3.869,-2.001l3.868,-0.32l3.869,13.446l3.868,-10.352l3.868,-2.107l3.869,-1.788l3.868,1.121l3.869,-2.108l3.868,-0.107l3.868,15.341l3.869,-1.068" stroke="#539BBB" stroke-width="1.16053" stroke-linecap="round" stroke-linejoin="round"/></g><g id="Chart_5" data-node-id="1:2097"><path id="Path 7_7" data-node-id="1:2098" fill-rule="evenodd" clip-rule="evenodd" d="M430.168,95.804l3.869,1.974l3.868,2.561l3.869,-2.241l3.868,-1.974l3.868,-0.774l3.869,0.96l3.868,4.963l3.869,-7.284l3.868,-0.48l3.869,2.801l3.868,6.403l3.868,-3.334l3.869,-4.296l3.868,5.189l3.869,2.655l3.868,-1.681l4.642,-4.269v15.207h-71.179v-10.751z" fill="url(#paint3_linear_1_1890)"/><path id="Path 7_8" data-node-id="1:2099" d="M426.3,101.433l3.868,-5.629l3.869,1.974l3.868,2.668l3.869,-2.348l3.868,-1.974l3.868,-0.774l3.869,0.96l3.868,4.963l3.869,-7.284l3.868,-0.48l3.869,2.801l3.868,6.403l3.868,-3.334l3.869,-4.296l3.868,5.629l3.869,2.215l3.868,-1.681l3.869,-4.162" stroke="#539BBB" stroke-width="1.16053" stroke-linecap="round" stroke-linejoin="round"/></g><g id="Chart_6" data-node-id="1:2102"><path id="Path 7_9" data-node-id="1:2103" fill-rule="evenodd" clip-rule="evenodd" d="M310.247,98.125l3.869,4.295l3.868,1.788l3.869,1.627l3.868,-4.295l3.868,9.284l3.869,-3.682l3.868,-6.643l3.869,-4.188l3.868,3.388l3.868,-2.615l3.869,4.856l3.868,1.307l4.642,-4.295l3.095,-4.869l3.869,0.333l3.868,6.83l4.642,-8.137v19.075h-71.179v-7.656z" fill="url(#paint4_linear_1_1890)"/><path id="Path 7_10" data-node-id="1:2104" d="M306.379,103.754l3.868,-5.629l3.869,4.295l3.868,1.894l3.869,1.521l3.868,-4.295l3.868,9.284l3.869,-3.682l3.868,-6.643l3.869,-4.188l3.868,3.388l3.868,-2.615l3.725,4.799l4.012,1.364l3.869,-3.522l3.868,-5.202l3.869,0.667l3.868,6.056l3.868,-7.256" stroke="#539BBB" stroke-width="1.16053" stroke-linecap="round" stroke-linejoin="round"/></g><g id="Chart_7" data-node-id="1:2107"><path id="Path 7_11" data-node-id="1:2108" fill-rule="evenodd" clip-rule="evenodd" d="M186.458,108.182l3.868,-2.667l3.869,3.334l3.868,-5.335l3.868,2.668h3.869l3.868,-6.003l3.869,-2.001l3.868,2.001l3.869,-6.67l3.868,6.67l3.868,-1.334l3.869,-3.335l4.642,2.668l3.095,-1l3.868,0.333l3.869,-4.002l4.642,7.337v11.338h-71.179v-5.335z" fill="url(#paint5_linear_1_1890)"/><path id="Path 7_12" data-node-id="1:2109" d="M182.589,106.849l3.869,1.333l3.868,-2.667l3.869,2.667l3.868,-4.668l3.868,2.668h3.869l3.868,-6.003l3.869,-2.001l3.868,2.001l3.869,-6.67l3.868,6.67l3.868,-1.334l3.869,-3.335l3.868,2.668l3.869,-1.334l3.868,0.667l3.869,-4.002l3.868,6.67" stroke="#539BBB" stroke-width="1.16053" stroke-linecap="round" stroke-linejoin="round"/></g><rect id="Scroll" data-node-id="1:2113" x="874.26" y="50.28800000000001" width="3.86842" height="193.421" rx="1.93421" fill="#4B5157"/><g id="Divider/Horizontal_8" data-node-id="1:2114"><rect id="Divider_8" data-node-id="1:2115" x="0" y="45.648000000000025" width="882" height="0.773684" fill="#D9DADB"/></g><g id="Icon/Arrow_2" data-node-id="1:2140"><path id="Arrow_7" data-node-id="1:2141" fill-rule="evenodd" clip-rule="evenodd" d="M93.616,24.64l2.854,-2.869c0.143,-0.144 0.376,-0.144 0.52,0c0.143,0.145 0.143,0.379 0,0.523l-3.114,3.129c-0.144,0.145 -0.377,0.145 -0.52,0l-3.114,-3.129c-0.144,-0.144 -0.144,-0.378 0,-0.523c0.143,-0.144 0.376,-0.144 0.52,0z" fill="#4B5157"/></g></g></g></g></g></g></g></g></g></g></g><defs><clipPath id="clip0_1_1890"><rect width="1280" height="892" fill="white" x="-338" y="-556.447"/></clipPath><clipPath id="clip1_1_1890"><rect width="1280" height="892" fill="white" x="-338" y="-556.447"/></clipPath><filter id="filter0_d_1_1890" x="-342" y="-556.447" width="1288" height="900" filterUnits="userSpaceOnUse" color-interpolation-filters="sRGB"><feFlood flood-opacity="0" result="BackgroundImageFix"/><feColorMatrix in="SourceAlpha" type="matrix" values="0 0 0 0 0 0 0 0 0 0 0 0 0 0 0 0 0 0 127 0" result="hardAlpha"/><feOffset dy="4"/><feGaussianBlur stdDeviation="2"/><feComposite in2="hardAlpha" operator="out"/><feColorMatrix type="matrix" values="0 0 0 0 0 0 0 0 0 0 0 0 0 0 0 0 0 0 0.25 0"/><feBlend mode="normal" in2="BackgroundImageFix" result="effect1_dropShadow_1_1890"/><feBlend mode="normal" in="SourceGraphic" in2="effect1_dropShadow_1_1890" result="shape"/></filter><clipPath id="clip2_1_1890"><rect width="1280" height="889" rx="17.7778" fill="white" x="-338" y="-556.447"/></clipPath><clipPath id="clip11_1_1890"><rect width="882" height="363.632" fill="white" transform="translate(0, 0)"/></clipPath><linearGradient id="paint0_linear_1_1890" x1="757.31" y1="85.72799999999995" x2="757.31" y2="112.18399999999997" gradientUnits="userSpaceOnUse"><stop stop-color="#4592FF"/><stop offset="1" stop-color="white" stop-opacity="0.01"/></linearGradient><linearGradient id="paint1_linear_1_1890" x1="633.518" y1="85.72799999999995" x2="633.518" y2="112.18399999999997" gradientUnits="userSpaceOnUse"><stop stop-color="#4592FF"/><stop offset="1" stop-color="white" stop-opacity="0.01"/></linearGradient><linearGradient id="paint2_linear_1_1890" x1="534.487" y1="85.918" x2="534.487" y2="112.18499999999995" gradientUnits="userSpaceOnUse"><stop stop-color="#4592FF"/><stop offset="1" stop-color="white" stop-opacity="0.01"/></linearGradient><linearGradient id="paint3_linear_1_1890" x1="410.697" y1="85.72799999999995" x2="410.697" y2="112.18399999999997" gradientUnits="userSpaceOnUse"><stop stop-color="#4592FF"/><stop offset="1" stop-color="white" stop-opacity="0.01"/></linearGradient><linearGradient id="paint4_linear_1_1890" x1="290.77599999999995" y1="85.16099999999994" x2="290.77599999999995" y2="112.18399999999997" gradientUnits="userSpaceOnUse"><stop stop-color="#4592FF"/><stop offset="1" stop-color="white" stop-opacity="0.01"/></linearGradient><linearGradient id="paint5_linear_1_1890" x1="166.98700000000002" y1="85.72799999999995" x2="166.98700000000002" y2="112.18399999999997" gradientUnits="userSpaceOnUse"><stop stop-color="#4592FF"/><stop offset="1" stop-color="white" stop-opacity="0.01"/></linearGradient></defs></svg>