<svg viewBox="0 0 122.0096 32.6696" fill="none" xmlns="http://www.w3.org/2000/svg" xmlns:xlink="http://www.w3.org/1999/xlink" id="1bf329c3" x="0" y="0"><g id="Analytics" data-node-id="1:1890" clip-path="url(#clip0_1_1890)"><g id="MacBook Air - 8" data-node-id="1:1891" clip-path="url(#clip1_1_1890)"><g id="Integrate Employee Directory" data-node-id="1:1892" filter="url(#filter0_d_1_1890)"><g id="Home" data-node-id="1:1893"><g clip-path="url(#clip2_1_1890)"><g id="Frame 71" data-node-id="1:1894"><g id="Frame 70" data-node-id="1:1897"><g id="Frame 66" data-node-id="1:1898"><g id="Frame 76" data-node-id="1:2144"><g id="Component 1" data-node-id="1:2145" filter="url(#filter9_dddd_1_1890)"><rect x="0" y="0" width="31.6696" height="31.6696" rx="10.3835" fill="white"/><g id="Iconex/Light/Bell" data-node-id="I1:2145;71:7268"><g id="Iconex/Light/Bell_2" data-node-id="I1:2145;71:7268;30:22966"><g id="Bell" data-node-id="I1:2145;71:7268;30:22966;89:3292"><path id="Union" data-node-id="I1:2145;71:7268;30:22966;89:3293" d="M8.74,18.3953h0.66zM11.16,21.232l-0.09,0.6588v0zM20.2,21.232l0.09,0.6588zM22.21,16.8891l-0.57,0.3408zM10.95,12.365c0,-2.6142 2.11,-4.7335 4.73,-4.7335v-1.3304c-3.35,0 -6.06,2.7149 -6.06,6.0639zM10.95,14.2229v-1.8579h-1.33v1.8579zM9.4,18.3953c0,-0.4269 0.12,-0.8245 0.32,-1.1649l-1.14,-0.6813c-0.32,0.5407 -0.51,1.1729 -0.51,1.8462zM11.25,20.5731c-1.06,-0.1476 -1.85,-1.0726 -1.85,-2.1778h-1.33c0,1.7381 1.25,3.2526 3,3.4955zM15.68,20.9557c-1.32,0 -3.03,-0.1895 -4.43,-0.3826l-0.18,1.3177c1.41,0.1947 3.19,0.3953 4.61,0.3953zM20.11,20.5731c-1.4,0.1931 -3.11,0.3826 -4.43,0.3826v1.3304c1.42,0 3.2,-0.2006 4.61,-0.3953zM21.96,18.3953c0,1.1052 -0.79,2.0302 -1.85,2.1778l0.18,1.3177c1.75,-0.2429 3,-1.7574 3,-3.4955zM21.64,17.2299c0.2,0.3405 0.32,0.7383 0.32,1.1654h1.33c0,-0.6737 -0.19,-1.3062 -0.51,-1.847zM20.41,12.365v1.8557h1.33v-1.8557zM15.68,7.6315c2.61,0 4.73,2.1193 4.73,4.7335h1.33c0,-3.349 -2.71,-6.0639 -6.06,-6.0639zM22.78,16.5483c-0.28,-0.4595 -0.52,-0.8277 -0.73,-1.2389c-0.2,-0.3937 -0.31,-0.745 -0.31,-1.0887h-1.33c0,0.6324 0.21,1.1962 0.45,1.683c0.23,0.4694 0.55,0.9473 0.78,1.3262zM9.62,14.2229c0,0.3436 -0.12,0.6946 -0.31,1.088c-0.21,0.411 -0.46,0.779 -0.73,1.2382l1.14,0.6813c0.23,-0.3787 0.54,-0.8563 0.78,-1.3255c0.24,-0.4865 0.45,-1.05 0.45,-1.682z" fill="#2F667F"/><path id="Ellipse 33_2" data-node-id="I1:2145;71:7268;30:22966;89:3296" d="M17.61,23.6702c-0.42,0.6234 -1.13,1.0343 -1.93,1.0343c-0.8,0 -1.51,-0.4109 -1.93,-1.0343" stroke="#2F667F" stroke-width="1.33038" stroke-linecap="round"/></g></g></g><circle id="Ellipse 50" data-node-id="I1:2145;71:7269" cx="24.660000000000082" cy="7.008899999999997" r="1.81711" fill="#539BBB"/></g><g id="Frame 45" data-node-id="1:2146" filter="url(#filter10_dddd_1_1890)"><rect x="44.67000000000007" y="0" width="31.6696" height="31.6696" rx="10.3835" fill="white"/><g id="Iconex/Light/Bell_3" data-node-id="1:2147"><g id="Iconex/Light/Message circle" data-node-id="I1:2147;30:22966"><g id="Iconex/Light/Message circle_2" data-node-id="I1:2147;30:22966;30:22962"><g id="Message circle" data-node-id="I1:2147;30:22966;30:22962;89:3269"><path id="Union_2" data-node-id="I1:2147;30:22966;30:22962;89:3270" d="M51.85,22.9561l0.62,0.2217v0zM53.21,24.3142l0.22,0.6272v0zM56.21,23.597l-0.32,0.5817zM52.67,20.6262l-0.63,-0.2217zM52.3,15.8348c0,-4.531 3.67,-8.204 8.2,-8.204v-1.3304c-5.26,0 -9.53,4.2687 -9.53,9.5344zM53.2,19.5806c-0.57,-1.1222 -0.9,-2.395 -0.9,-3.7458h-1.33c0,1.5673 0.38,3.0481 1.05,4.3541zM52.47,23.1778l0.83,-2.33l-1.26,-0.4433l-0.82,2.33zM52.98,23.687c-0.31,0.1118 -0.62,-0.1929 -0.51,-0.5092l-1.25,-0.4433c-0.48,1.3708 0.84,2.6913 2.21,2.2069zM55.22,22.8965l-2.24,0.7905l0.45,1.2544l2.23,-0.7906zM60.5,24.0388c-1.44,0 -2.79,-0.3715 -3.97,-1.0236l-0.64,1.1635c1.37,0.7588 2.94,1.1905 4.61,1.1905zM68.71,15.8348c0,4.531 -3.67,8.204 -8.21,8.204v1.3304c5.27,0 9.54,-4.2687 9.54,-9.5344zM60.5,7.6308c4.54,0 8.21,3.673 8.21,8.204h1.33c0,-5.2657 -4.27,-9.5344 -9.54,-9.5344zM55.66,24.1508c0.06,-0.0205 0.14,-0.0185 0.23,0.0279l0.64,-1.1635c-0.38,-0.2142 -0.86,-0.2773 -1.31,-0.1187zM52.02,20.1889c0.04,0.0817 0.04,0.1597 0.02,0.2156l1.26,0.4433c0.15,-0.4314 0.1,-0.8893 -0.1,-1.2672z" fill="#2F667F"/><g id="Dots" data-node-id="I1:2147;30:22966;30:22962;89:3273"><circle id="Ellipse 37" data-node-id="I1:2147;30:22966;30:22962;89:3274" cx="56.1099999999999" cy="15.878999999999998" r="1.10865" fill="#2F667F"/><circle id="Ellipse 38" data-node-id="I1:2147;30:22966;30:22962;89:3275" cx="60.549999999999955" cy="15.878999999999998" r="1.10865" fill="#2F667F"/><circle id="Ellipse 39" data-node-id="I1:2147;30:22966;30:22962;89:3276" cx="64.98000000000002" cy="15.878999999999998" r="1.10865" fill="#2F667F"/></g></g></g></g></g><circle id="Ellipse 50_2" data-node-id="1:2148" cx="69.32999999999993" cy="7.008499999999998" r="1.81711" fill="#539BBB"/></g><g id="Frame 44" data-node-id="1:2149" filter="url(#filter11_dddd_1_1890)"><rect x="89.33999999999992" y="0" width="31.6696" height="31.6696" rx="10.3835" fill="white"/><g id="Iconex/Light/Settings_3" data-node-id="1:2150"><g id="Iconex/Light/Settings_4" data-node-id="I1:2150;30:23015"><g id="Settings_2" data-node-id="I1:2150;30:23015;89:4391"><circle id="Ellipse 33_3" data-node-id="I1:2150;30:23015;89:4392" cx="2.66077" cy="2.66077" r="2.66077" transform="matrix(-1, 0, 0, 1, 107.82999999999993, 13.174099999999996)" stroke="#2F667F" stroke-width="1.33038"/><path id="Subtract_2" data-node-id="I1:2150;30:23015;89:4393" d="M109.17,9.5709l-0.34,0.5761v0zM109.17,22.0984l-0.34,-0.5761zM101.18,22.0984l0.34,-0.5761v0zM101.18,9.5709l0.34,0.5761zM102.44,7.8659l0.65,0.1499zM97.11,13.7802l-0.42,0.5134zM96.8,12.9105l-0.63,-0.2193zM98.44,21.6025l-0.51,0.4328zM102.99,24.4335l0.16,-0.6449zM102.44,23.8037l-0.64,0.1499zM107.9,23.8036l0.65,0.1499zM107.36,24.4335l-0.17,-0.6449zM111.91,21.6025l0.51,0.4327zM111.11,21.8128l-0.16,0.6475zM113.24,13.7803l0.42,0.5134zM96.8,18.7591l0.63,-0.2192zM111.11,9.8565l0.15,0.6475zM111.91,10.0669l0.51,-0.4328zM99.24,9.8565l-0.15,0.6474zM113.24,17.8893l0.42,-0.5133zM113.55,18.7591l0.63,0.2192zM107.9,7.8659l-0.64,0.15zM107.26,8.0159c0.2,0.8655 0.74,1.6512 1.57,2.1311l0.67,-1.1522c-0.5,-0.2879 -0.83,-0.7575 -0.95,-1.2788zM108.83,10.147c0.77,0.4408 1.63,0.5444 2.43,0.357l-0.31,-1.2949c-0.48,0.1127 -0.99,0.0505 -1.45,-0.2143zM114.18,12.6913c-0.4,-1.132 -1,-2.1662 -1.76,-3.0572l-1.01,0.8656c0.65,0.7675 1.17,1.6573 1.51,2.6301zM112.93,15.8348c0,-0.6203 0.29,-1.1741 0.73,-1.5411l-0.84,-1.0268c-0.74,0.6089 -1.22,1.5335 -1.22,2.5679zM113.66,17.376c-0.44,-0.3671 -0.73,-0.9209 -0.73,-1.5412h-1.33c0,1.0344 0.48,1.959 1.22,2.5679zM112.42,22.0352c0.76,-0.8909 1.36,-1.925 1.76,-3.0569l-1.26,-0.4385c-0.34,0.9727 -0.86,1.8624 -1.51,2.6299zM109.5,22.6745c0.46,-0.2648 0.97,-0.327 1.45,-0.2142l0.31,-1.2949c-0.8,-0.1875 -1.66,-0.084 -2.43,0.3569zM108.55,23.9535c0.12,-0.5213 0.45,-0.991 0.95,-1.279l-0.67,-1.1522c-0.83,0.48 -1.37,1.2658 -1.58,2.1314zM105.17,25.3692c0.81,0 1.6,-0.1008 2.35,-0.2909l-0.33,-1.2897c-0.64,0.1633 -1.32,0.2502 -2.02,0.2502zM102.83,25.0784c0.75,0.19 1.54,0.2908 2.34,0.2908v-1.3304c-0.69,0 -1.37,-0.0869 -2.02,-0.2502zM100.85,22.6745c0.5,0.288 0.83,0.7577 0.95,1.2791l1.29,-0.2998c-0.2,-0.8657 -0.74,-1.6515 -1.57,-2.1315zM99.39,22.4603c0.48,-0.1128 1,-0.0506 1.46,0.2142l0.67,-1.1522c-0.77,-0.4409 -1.64,-0.5444 -2.43,-0.3569zM96.17,18.9784c0.4,1.1318 1,2.1659 1.76,3.0569l1.01,-0.8656c-0.66,-0.7674 -1.17,-1.6572 -1.51,-2.6298zM97.41,15.8348c0,0.6203 -0.28,1.1741 -0.72,1.5412l0.84,1.0267c0.74,-0.6089 1.21,-1.5334 1.21,-2.5679zM96.69,14.2936c0.44,0.3671 0.72,0.9209 0.72,1.5412h1.33c0,-1.0345 -0.47,-1.959 -1.21,-2.5679zM97.93,9.634c-0.76,0.8911 -1.36,1.9252 -1.76,3.0572l1.26,0.4385c0.34,-0.9727 0.85,-1.8625 1.51,-2.63zM100.85,8.9948c-0.46,0.2648 -0.98,0.327 -1.46,0.2143l-0.3,1.2948c0.79,0.1875 1.66,0.084 2.43,-0.3569zM101.8,7.7159c-0.12,0.5213 -0.45,0.991 -0.95,1.2789l0.67,1.1522c0.83,-0.4799 1.37,-1.2656 1.57,-2.1312zM105.17,6.3004c-0.8,0 -1.59,0.1008 -2.34,0.2909l0.32,1.2897c0.65,-0.1633 1.33,-0.2502 2.02,-0.2502zM107.52,6.5913c-0.75,-0.1901 -1.54,-0.2909 -2.35,-0.2909v1.3304c0.7,0 1.38,0.0869 2.02,0.2502zM103.09,8.0158c0.02,-0.0598 0.04,-0.102 0.06,-0.1242c0.01,-0.019 0.02,-0.0137 0,-0.0106l-0.32,-1.2897c-0.61,0.1551 -0.93,0.6845 -1.03,1.1246zM97.53,13.2669c-0.05,-0.0445 -0.08,-0.0927 -0.1,-0.1249c-0.01,-0.027 0,-0.0258 0,-0.0123l-1.26,-0.4385c-0.24,0.6759 0.13,1.2844 0.52,1.6024zM99.09,21.1654c-0.06,0.0141 -0.11,0.0118 -0.14,0.0053c-0.02,-0.0056 -0.02,-0.0105 -0.01,-0.001l-1.01,0.8656c0.41,0.4793 1.03,0.5287 1.46,0.425zM103.15,23.7886c0.02,0.0031 0.01,0.0084 0,-0.0106c-0.02,-0.0222 -0.04,-0.0644 -0.06,-0.1242l-1.29,0.2998c0.1,0.4401 0.42,0.9696 1.03,1.1248zM107.25,23.6537c-0.01,0.0599 -0.03,0.1021 -0.05,0.1243c-0.02,0.019 -0.02,0.0137 -0.01,0.0106l0.33,1.2897c0.61,-0.1551 0.93,-0.6846 1.03,-1.1248zM111.41,21.1697c0,-0.0095 0.01,-0.0046 -0.02,0.001c-0.02,0.0065 -0.07,0.0088 -0.13,-0.0053l-0.31,1.2949c0.44,0.1036 1.06,0.0543 1.47,-0.4251zM112.92,13.1298c0,-0.0136 0,-0.0148 -0.01,0.0123c-0.01,0.0322 -0.04,0.0803 -0.09,0.1248l0.84,1.0268c0.39,-0.318 0.75,-0.9266 0.52,-1.6024zM97.43,18.5399c0,0.0135 -0.01,0.0147 0,-0.0123c0.02,-0.0322 0.05,-0.0804 0.1,-0.1249l-0.84,-1.0267c-0.39,0.318 -0.76,0.9265 -0.52,1.6024zM111.26,10.504c0.06,-0.0141 0.11,-0.0118 0.13,-0.0053c0.03,0.0056 0.02,0.0105 0.02,0.001l1.01,-0.8656c-0.41,-0.4793 -1.03,-0.5286 -1.47,-0.425zM98.94,10.4997c-0.01,0.0094 -0.01,0.0046 0.01,-0.001c0.03,-0.0065 0.08,-0.0088 0.14,0.0052l0.3,-1.2948c-0.43,-0.1037 -1.05,-0.0543 -1.46,0.4249zM112.82,18.4027c0.05,0.0445 0.08,0.0926 0.09,0.1248c0.01,0.0271 0.01,0.0259 0.01,0.0123l1.26,0.4385c0.23,-0.6758 -0.13,-1.2843 -0.52,-1.6023zM108.55,7.716c-0.1,-0.4401 -0.42,-0.9696 -1.03,-1.1247l-0.33,1.2897c-0.01,-0.0031 -0.01,-0.0083 0.01,0.0107c0.02,0.0221 0.04,0.0643 0.06,0.1242z" fill="#2F667F"/></g></g></g></g></g></g></g></g></g></g></g></g></g><defs><clipPath id="clip0_1_1890"><rect width="1280" height="892" fill="white" x="-1065" y="-42.6726"/></clipPath><clipPath id="clip1_1_1890"><rect width="1280" height="892" fill="white" x="-1065" y="-42.6726"/></clipPath><filter id="filter0_d_1_1890" x="-1069" y="-42.6726" width="1288" height="900" filterUnits="userSpaceOnUse" color-interpolation-filters="sRGB"><feFlood flood-opacity="0" result="BackgroundImageFix"/><feColorMatrix in="SourceAlpha" type="matrix" values="0 0 0 0 0 0 0 0 0 0 0 0 0 0 0 0 0 0 127 0" result="hardAlpha"/><feOffset dy="4"/><feGaussianBlur stdDeviation="2"/><feComposite in2="hardAlpha" operator="out"/><feColorMatrix type="matrix" values="0 0 0 0 0 0 0 0 0 0 0 0 0 0 0 0 0 0 0.25 0"/><feBlend mode="normal" in2="BackgroundImageFix" result="effect1_dropShadow_1_1890"/><feBlend mode="normal" in="SourceGraphic" in2="effect1_dropShadow_1_1890" result="shape"/></filter><clipPath id="clip2_1_1890"><rect width="1280" height="889" rx="17.7778" fill="white" x="-1065" y="-42.6726"/></clipPath><filter id="filter9_dddd_1_1890" x="-1.7799999999999727" y="-0.8888999999999996" width="45.003" height="49.4475" filterUnits="userSpaceOnUse" color-interpolation-filters="sRGB"><feFlood flood-opacity="0" result="BackgroundImageFix"/><feColorMatrix in="SourceAlpha" type="matrix" values="0 0 0 0 0 0 0 0 0 0 0 0 0 0 0 0 0 0 127 0" result="hardAlpha"/><feOffset dy="0.888889"/><feGaussianBlur stdDeviation="0.888889"/><feColorMatrix type="matrix" values="0 0 0 0 0 0 0 0 0 0 0 0 0 0 0 0 0 0 0.1 0"/><feBlend mode="normal" in2="BackgroundImageFix" result="effect1_dropShadow_1_1890"/><feColorMatrix in="SourceAlpha" type="matrix" values="0 0 0 0 0 0 0 0 0 0 0 0 0 0 0 0 0 0 127 0" result="hardAlpha"/><feOffset dx="1.77778" dy="2.66667"/><feGaussianBlur stdDeviation="1.77778"/><feColorMatrix type="matrix" values="0 0 0 0 0 0 0 0 0 0 0 0 0 0 0 0 0 0 0.09 0"/><feBlend mode="normal" in2="effect1_dropShadow_1_1890" result="effect2_dropShadow_1_1890"/><feColorMatrix in="SourceAlpha" type="matrix" values="0 0 0 0 0 0 0 0 0 0 0 0 0 0 0 0 0 0 127 0" result="hardAlpha"/><feOffset dx="3.55556" dy="6.22222"/><feGaussianBlur stdDeviation="2.22222"/><feColorMatrix type="matrix" values="0 0 0 0 0 0 0 0 0 0 0 0 0 0 0 0 0 0 0.05 0"/><feBlend mode="normal" in2="effect2_dropShadow_1_1890" result="effect3_dropShadow_1_1890"/><feColorMatrix in="SourceAlpha" type="matrix" values="0 0 0 0 0 0 0 0 0 0 0 0 0 0 0 0 0 0 127 0" result="hardAlpha"/><feOffset dx="6.22222" dy="11.5556"/><feGaussianBlur stdDeviation="2.66667"/><feColorMatrix type="matrix" values="0 0 0 0 0 0 0 0 0 0 0 0 0 0 0 0 0 0 0.01 0"/><feBlend mode="normal" in2="effect3_dropShadow_1_1890" result="effect4_dropShadow_1_1890"/><feBlend mode="normal" in="SourceGraphic" in2="effect4_dropShadow_1_1890" result="shape"/></filter><filter id="filter10_dddd_1_1890" x="42" y="-1.7778000000000063" width="49.4474" height="55.6697" filterUnits="userSpaceOnUse" color-interpolation-filters="sRGB"><feFlood flood-opacity="0" result="BackgroundImageFix"/><feColorMatrix in="SourceAlpha" type="matrix" values="0 0 0 0 0 0 0 0 0 0 0 0 0 0 0 0 0 0 127 0" result="hardAlpha"/><feOffset dx="0.888889" dy="0.888889"/><feGaussianBlur stdDeviation="1.33333"/><feColorMatrix type="matrix" values="0 0 0 0 0 0 0 0 0 0 0 0 0 0 0 0 0 0 0.1 0"/><feBlend mode="normal" in2="BackgroundImageFix" result="effect1_dropShadow_1_1890"/><feColorMatrix in="SourceAlpha" type="matrix" values="0 0 0 0 0 0 0 0 0 0 0 0 0 0 0 0 0 0 127 0" result="hardAlpha"/><feOffset dx="1.77778" dy="3.55556"/><feGaussianBlur stdDeviation="2.22222"/><feColorMatrix type="matrix" values="0 0 0 0 0 0 0 0 0 0 0 0 0 0 0 0 0 0 0.09 0"/><feBlend mode="normal" in2="effect1_dropShadow_1_1890" result="effect2_dropShadow_1_1890"/><feColorMatrix in="SourceAlpha" type="matrix" values="0 0 0 0 0 0 0 0 0 0 0 0 0 0 0 0 0 0 127 0" result="hardAlpha"/><feOffset dx="4.44444" dy="8"/><feGaussianBlur stdDeviation="2.66667"/><feColorMatrix type="matrix" values="0 0 0 0 0 0 0 0 0 0 0 0 0 0 0 0 0 0 0.05 0"/><feBlend mode="normal" in2="effect2_dropShadow_1_1890" result="effect3_dropShadow_1_1890"/><feColorMatrix in="SourceAlpha" type="matrix" values="0 0 0 0 0 0 0 0 0 0 0 0 0 0 0 0 0 0 127 0" result="hardAlpha"/><feOffset dx="8" dy="15.1111"/><feGaussianBlur stdDeviation="3.55556"/><feColorMatrix type="matrix" values="0 0 0 0 0 0 0 0 0 0 0 0 0 0 0 0 0 0 0.01 0"/><feBlend mode="normal" in2="effect3_dropShadow_1_1890" result="effect4_dropShadow_1_1890"/><feBlend mode="normal" in="SourceGraphic" in2="effect4_dropShadow_1_1890" result="shape"/></filter><filter id="filter11_dddd_1_1890" x="87.55999999999995" y="-0.8888999999999996" width="44.1141" height="47.6697" filterUnits="userSpaceOnUse" color-interpolation-filters="sRGB"><feFlood flood-opacity="0" result="BackgroundImageFix"/><feColorMatrix in="SourceAlpha" type="matrix" values="0 0 0 0 0 0 0 0 0 0 0 0 0 0 0 0 0 0 127 0" result="hardAlpha"/><feOffset dy="0.888889"/><feGaussianBlur stdDeviation="0.888889"/><feColorMatrix type="matrix" values="0 0 0 0 0 0 0 0 0 0 0 0 0 0 0 0 0 0 0.1 0"/><feBlend mode="normal" in2="BackgroundImageFix" result="effect1_dropShadow_1_1890"/><feColorMatrix in="SourceAlpha" type="matrix" values="0 0 0 0 0 0 0 0 0 0 0 0 0 0 0 0 0 0 127 0" result="hardAlpha"/><feOffset dx="1.77778" dy="2.66667"/><feGaussianBlur stdDeviation="1.33333"/><feColorMatrix type="matrix" values="0 0 0 0 0 0 0 0 0 0 0 0 0 0 0 0 0 0 0.09 0"/><feBlend mode="normal" in2="effect1_dropShadow_1_1890" result="effect2_dropShadow_1_1890"/><feColorMatrix in="SourceAlpha" type="matrix" values="0 0 0 0 0 0 0 0 0 0 0 0 0 0 0 0 0 0 127 0" result="hardAlpha"/><feOffset dx="3.55556" dy="6.22222"/><feGaussianBlur stdDeviation="2.22222"/><feColorMatrix type="matrix" values="0 0 0 0 0 0 0 0 0 0 0 0 0 0 0 0 0 0 0.05 0"/><feBlend mode="normal" in2="effect2_dropShadow_1_1890" result="effect3_dropShadow_1_1890"/><feColorMatrix in="SourceAlpha" type="matrix" values="0 0 0 0 0 0 0 0 0 0 0 0 0 0 0 0 0 0 127 0" result="hardAlpha"/><feOffset dx="6.22222" dy="10.6667"/><feGaussianBlur stdDeviation="2.22222"/><feColorMatrix type="matrix" values="0 0 0 0 0 0 0 0 0 0 0 0 0 0 0 0 0 0 0.01 0"/><feBlend mode="normal" in2="effect3_dropShadow_1_1890" result="effect4_dropShadow_1_1890"/><feBlend mode="normal" in="SourceGraphic" in2="effect4_dropShadow_1_1890" result="shape"/></filter></defs></svg>